<?xml version="1.0" encoding="UTF-8"?>
<svg version="1.1" xmlns="http://www.w3.org/2000/svg" width="1082" height="442">
<path d="M0 0 C357.06 0 714.12 0 1082 0 C1082 145.86 1082 291.72 1082 442 C724.94 442 367.88 442 0 442 C0 296.14 0 150.28 0 0 Z " fill="#FDF8F2" transform="translate(0,0)"/>
<path d="M0 0 C5.95148746 5.46655145 9.64543214 12.06056572 10.046875 20.25 C9.13907799 28.29048784 6.91584731 32.48379943 0.64453125 37.6796875 C-5.62884638 42.13486931 -11.85455166 42.04761786 -19.390625 41.125 C-25.76605007 38.6471377 -30.8155168 34.01500707 -36.109375 29.79296875 C-51.37127491 18.63401111 -70.16586041 17.70995804 -88.390625 19.125 C-97.90400843 20.67263175 -106.66521024 24.59649752 -112.9765625 31.98046875 C-117.55727841 38.7250035 -117.33077753 46.25787462 -116.390625 54.125 C-114.4343859 60.92580771 -108.6239022 65.25008186 -102.75 68.65625 C-89.92060796 75.1038419 -75.72642158 77.47886578 -61.75463867 80.25317383 C-34.39887209 85.71718232 -8.04998802 91.86757248 9.046875 115.625 C15.37837005 125.78101084 16.82383898 135.93910614 16.921875 147.625 C16.95087891 148.74648437 16.97988281 149.86796875 17.00976562 151.0234375 C17.13424446 167.60784836 10.00157798 181.66760397 -1.44921875 193.390625 C-5.61037728 197.41478496 -10.35626869 200.31494262 -15.390625 203.125 C-16.31101563 203.70314453 -16.31101563 203.70314453 -17.25 204.29296875 C-40.18407363 218.54485736 -76.77389081 218.86428843 -102.578125 213.4375 C-104.81858821 212.90692617 -107.03754031 212.33476774 -109.25488281 211.71484375 C-111.46364073 211.1048347 -113.68176817 210.5791905 -115.9140625 210.0625 C-134.02995885 205.68989838 -153.29571178 197.82024309 -164.390625 182.125 C-167.01908195 177.24224368 -168.07318565 172.68299388 -167.390625 167.125 C-164.8707089 159.64278759 -161.67958787 154.17639552 -154.640625 150.3125 C-148.97693275 147.70422068 -145.01205765 146.91178973 -139.05859375 148.90625 C-133.94461988 151.1612306 -130.21761689 154.07191359 -126.203125 157.9375 C-115.96749792 167.59728308 -104.01487716 172.30454078 -90.390625 175.125 C-89.50503906 175.31578125 -88.61945313 175.5065625 -87.70703125 175.703125 C-71.26165891 177.79511583 -52.21536259 178.10750349 -38.296875 167.90234375 C-32.67387358 162.65958628 -29.3838086 156.67521194 -29.015625 149 C-29.1475214 142.31724911 -31.65055154 136.88690672 -36.3515625 132.1484375 C-47.90705782 123.19588652 -63.73074828 120.30849577 -77.77191162 117.59716797 C-81.94234396 116.78722484 -86.10206006 115.92583117 -90.26171875 115.0625 C-91.06695984 114.89548584 -91.87220093 114.72847168 -92.70184326 114.55639648 C-115.89710775 109.69443352 -139.49448763 101.67261322 -154.390625 82.125 C-164.15279074 67.0128264 -166.41494244 50.76351873 -163.140625 33.1640625 C-158.68309065 15.10176185 -147.75558058 1.71051292 -132.08984375 -7.76953125 C-95.0938804 -29.27385855 -34.17047224 -26.80037038 0 0 Z " fill="#1D2A46" transform="translate(259.390625,95.875)"/>
<path d="M0 0 C3.66840987 3.44584944 6.89636934 6.79881244 7.1398077 11.96961308 C7.14667882 13.25396464 7.15354994 14.53831621 7.16062927 15.86158752 C7.16571709 16.5756515 7.17080491 17.28971547 7.17604691 18.02541775 C7.19180699 20.43043602 7.20030591 22.83542417 7.20874023 25.24047852 C7.21827607 26.96014091 7.22816711 28.67980138 7.23838806 30.39945984 C7.26981266 36.05925204 7.2900483 41.71905911 7.30859375 47.37890625 C7.31189107 48.34174994 7.31518839 49.30459363 7.31858563 50.29661441 C7.34937483 59.377931 7.37608315 68.45925086 7.39300442 77.54060459 C7.41489976 89.15563269 7.4568379 100.77019781 7.52644199 112.38504082 C7.57371785 120.55160598 7.59794302 128.71804641 7.6052013 136.88474411 C7.61015335 141.76174542 7.62519089 146.63822533 7.6649456 151.51507759 C7.70188732 156.10760513 7.71019708 160.69931516 7.69693947 165.29196358 C7.6969933 166.9733406 7.70724098 168.65475452 7.7286911 170.33599472 C7.91341651 185.63866638 7.91341651 185.63866638 2.59317112 192.43873501 C0.28349077 194.70215984 -1.95795014 195.9418957 -5 197 C-5.61875 197.226875 -6.2375 197.45375 -6.875 197.6875 C-13.31296631 198.63425975 -20.07886492 198.55099133 -25.69921875 194.89453125 C-31.46037875 190.36093076 -32.4035539 185.84191184 -34 179 C-34.48726562 179.56847656 -34.97453125 180.13695312 -35.4765625 180.72265625 C-45.75345047 191.91512151 -58.65509857 196.65155692 -73.5390625 198.27734375 C-90.98085093 199.00651551 -107.80197943 192.28499769 -120.8984375 180.984375 C-136.331716 166.41168824 -143.35551624 147.35898287 -144.21875 126.38671875 C-144.80832758 104.19046271 -138.66191575 83.69681528 -123.28125 67.31640625 C-110.67758573 54.51850743 -95.23485949 46.8360157 -77.125 46.6875 C-63.44587895 46.66384052 -50.07527748 49.39614704 -39.80444336 59.06738281 C-39.11487549 59.77217773 -38.42530762 60.47697266 -37.71484375 61.203125 C-37.01351318 61.91629883 -36.31218262 62.62947266 -35.58959961 63.36425781 C-35.06503174 63.90405273 -34.54046387 64.44384766 -34 65 C-33.99120064 63.98641922 -33.99120064 63.98641922 -33.98222351 62.95236206 C-33.91822915 55.91165192 -33.8337932 48.8713963 -33.73754883 41.83105469 C-33.70431962 39.20448809 -33.6762815 36.57785043 -33.65356445 33.95117188 C-33.61998272 30.17286939 -33.56766247 26.39521695 -33.51171875 22.6171875 C-33.50532883 21.44509735 -33.4989389 20.2730072 -33.49235535 19.06539917 C-33.37171939 12.35722956 -33.00152407 7.40124277 -28.38671875 2.171875 C-19.53674652 -5.233619 -9.85404711 -6.27241006 0 0 Z " fill="#1D2A46" transform="translate(744,112)"/>
<path d="M0 0 C6.00337951 3.10907559 10.46798482 7.68395994 13.54296875 13.6875 C15.45379415 20.46224461 15.36864541 27.11023035 15.4140625 34.09375 C15.45360498 36.46228754 15.49601014 38.83077871 15.54101562 41.19921875 C15.61160438 44.91951647 15.66799602 48.63691294 15.67651367 52.35791016 C15.68913393 55.95968394 15.76457627 59.55560136 15.8515625 63.15625 C15.84056015 64.26577026 15.8295578 65.37529053 15.81822205 66.51843262 C15.98347779 72.48036517 15.98347779 72.48036517 19.3611145 77.13525391 C31.16078319 84.44177808 45.55109249 86.90778802 59.1328125 84.40625 C62.91989151 83.5051218 66.5825463 82.50433362 70.23046875 81.125 C71.25543961 80.74650658 71.25543961 80.74650658 72.30111694 80.36036682 C74.76282695 79.18885946 76.38303984 78.14582014 78.23046875 76.125 C79.40163205 71.75473588 79.22937482 67.47625681 79.125 62.9765625 C79.13074764 61.01166895 79.13650925 59.04677533 79.14308453 57.08188438 C79.1423981 54.33402922 79.10531411 51.5871105 79.06848145 48.83953857 C79.00988474 44.04035624 79.00002887 39.24099132 79.00309753 34.4414978 C79.00107179 31.88935782 78.98184974 29.33715867 78.9433136 26.78530884 C78.89761414 17.95565513 79.83847464 11.68975071 86.23046875 5.125 C94.10633722 -0.62357204 100.52094436 -1.56140597 110.23046875 -0.875 C115.68666572 0.27605816 120.60713029 2.80565303 124.23046875 7.125 C129.76043102 16.0626147 130.38147194 24.42240734 131.04296875 34.6875 C131.8996975 47.28679868 132.97288347 59.86035479 134.10546875 72.4375 C134.2768968 74.35293499 134.44820095 76.26838106 134.61938477 78.18383789 C135.34188458 86.25897732 136.06625169 94.33392605 136.80371094 102.40771484 C137.2810595 107.63888042 137.74882632 112.87083582 138.21099854 118.10336304 C138.3870802 120.07781086 138.56642421 122.05197119 138.74945068 124.02578735 C139.69434775 134.22986059 140.39648482 144.38121396 140.46484375 154.6328125 C140.48010101 155.93424194 140.48010101 155.93424194 140.4956665 157.26196289 C140.4691362 165.09556653 138.63176955 170.18503165 133.50390625 176.125 C127.63342273 181.92300841 119.97508758 185.167785 111.73046875 185.625 C103.58160606 185.17309527 95.87545714 181.99626136 90.07940674 176.23442078 C83.42493115 168.64244682 82.42020784 160.47040215 82.12109375 150.69921875 C82.03538116 148.80234062 82.03538116 148.80234062 81.94793701 146.86714172 C81.80071033 143.52695241 81.67271696 140.18721457 81.55474854 136.84594727 C81.43181734 133.4806428 81.28587313 130.11635648 81.140625 126.75195312 C80.97691473 122.94712533 80.81585359 119.14250509 80.6729126 115.33683777 C80.37666512 107.58095757 79.88137132 99.85919813 79.23046875 92.125 C78.34601074 92.48843506 77.46155273 92.85187012 76.55029297 93.22631836 C60.6172126 99.70510872 42.53669143 102.20801363 26.03173828 95.90307617 C24.46335205 95.229823 24.46335205 95.229823 22.86328125 94.54296875 C21.80254395 94.09074951 20.74180664 93.63853027 19.64892578 93.17260742 C18.85083496 92.82689697 18.05274414 92.48118652 17.23046875 92.125 C17.2393512 92.9945079 17.24823364 93.86401581 17.25738525 94.75987244 C17.33777557 102.98333879 17.39855685 111.20667178 17.43771744 119.43044186 C17.4585277 123.65765687 17.48672397 127.88454521 17.53222656 132.11157227 C17.5759204 136.19647462 17.59965512 140.28106419 17.60997772 144.36618233 C17.61732714 145.91901124 17.6316783 147.47182444 17.65338898 149.02451897 C17.80325207 160.19395692 16.84856152 169.04413513 9.0703125 177.5546875 C2.6227884 183.05766985 -5.1973485 185.47042917 -13.58984375 185.34375 C-21.64236515 184.53561165 -28.4501806 180.78178023 -33.95703125 174.9375 C-39.61505043 167.84313783 -40.20695415 160.13465755 -40.00073242 151.34130859 C-39.98828334 150.30413885 -39.97583426 149.26696911 -39.96300793 148.19836998 C-39.91655169 144.83999675 -39.8453808 141.48282942 -39.76953125 138.125 C-39.73691885 136.4617506 -39.73691885 136.4617506 -39.70364761 134.76490021 C-39.40432452 119.62146018 -38.93169797 104.48170473 -38.4639864 89.34264565 C-38.22528969 81.60927739 -38.00250588 73.87579751 -37.80041248 66.14138377 C-37.63789016 59.97800432 -37.44966247 53.81563854 -37.25264549 47.65327072 C-37.17334976 45.0548945 -37.1020008 42.45626247 -37.03896523 39.85744095 C-36.94938914 36.23284065 -36.83033179 32.61030917 -36.7043457 28.98681641 C-36.67520584 27.40014412 -36.67520584 27.40014412 -36.64547729 25.78141785 C-36.32785067 17.96671366 -34.57020664 10.73764512 -28.72240162 5.17914772 C-20.48694047 -1.37485779 -10.12602992 -3.19919704 0 0 Z " fill="#5C99BA" transform="translate(820.76953125,126.875)"/>
<path d="M0 0 C4.92403846 3.13247982 7.94000806 7.64653166 9.75 13.11328125 C10.00828552 16.51905823 10.00828552 16.51905823 10.02124023 20.46704102 C10.02646698 21.189767 10.03169373 21.91249298 10.03707886 22.65711975 C10.04729108 24.22140403 10.0530944 25.78572203 10.05496025 27.35003853 C10.05864078 29.83645868 10.0754169 32.32248591 10.09571838 34.80882263 C10.15094336 41.87646115 10.18166612 48.94415863 10.20629883 56.01196289 C10.22229775 60.34265327 10.25265082 64.67306804 10.29106331 69.00361443 C10.30261315 70.64319844 10.30864277 72.28283205 10.30874443 73.92245674 C10.20423157 91.81228895 10.20423157 91.81228895 18.015625 107.4296875 C23.86672969 113.10947606 30.78828328 116.03391845 38.9375 116.48828125 C48.09296705 116.20753439 56.23761249 112.90511767 62.77734375 106.5078125 C72.24090071 95.02036613 73.03820051 81.70390562 73.02439499 67.41625404 C73.02341455 65.174071 73.03654448 62.93234779 73.05337524 60.69023132 C73.09921628 54.324365 73.12426196 47.9585556 73.13085938 41.5925293 C73.13589261 37.67631006 73.16021709 33.76058521 73.19618607 29.84453392 C73.20592626 28.36352706 73.20834784 26.88245179 73.20301437 25.4014225 C73.17562979 17.43169175 73.22034787 10.93910926 77.75 4.11328125 C82.49315962 -0.56873267 87.79743451 -2.28253528 94.375 -2.51171875 C101.00742839 -2.1610028 105.7587266 -0.83207348 110.53125 3.8671875 C114.18980898 8.00032371 115.87111697 10.49196698 115.89717102 16.09013367 C115.90790398 17.6693586 115.90790398 17.6693586 115.91885376 19.28048706 C115.92154266 20.44049225 115.92423157 21.60049744 115.92700195 22.7956543 C115.93357315 24.01365219 115.94014435 25.23165009 115.94691467 26.48655701 C115.96668672 30.53270714 115.97832004 34.57881756 115.98828125 38.625 C115.99232891 40.01846652 115.99644584 41.41193283 116.00063133 42.80539894 C116.01968752 49.35412758 116.03391585 55.90284493 116.0422433 62.45159596 C116.05200821 70.005856 116.07830605 77.55982243 116.11874419 85.11397904 C116.1489374 90.95527189 116.16371533 96.79648076 116.16702431 102.63785011 C116.16937182 106.12523755 116.17829204 109.61231151 116.20348549 113.0996151 C116.23116758 116.9944833 116.22692523 120.88896783 116.2199707 124.78393555 C116.23918579 126.5087616 116.23918579 126.5087616 116.25878906 128.26843262 C116.21065672 135.66395412 115.29791609 140.23718292 110.1875 145.8203125 C103.20616021 151.18911457 98.48180639 151.6766236 89.75 151.11328125 C84.57375582 149.96300477 79.57478059 147.82438384 76.51953125 143.28515625 C74.4149953 139.30401243 73.20198406 135.63312181 72.75 131.11328125 C72.30011719 131.60957031 71.85023438 132.10585938 71.38671875 132.6171875 C60.82837255 143.76798599 47.75443706 150.278309 32.32421875 151.3515625 C13.56250376 151.7098264 -3.12393524 146.8602409 -17.03125 133.5625 C-29.44931865 119.85452633 -33.33542789 102.75302492 -33.44287109 84.78295898 C-33.45104858 84.00445587 -33.45922607 83.22595276 -33.46765137 82.42385864 C-33.4921988 79.88153811 -33.50893341 77.3392718 -33.5234375 74.796875 C-33.52876118 73.92147631 -33.53408485 73.04607761 -33.53956985 72.14415169 C-33.56615654 67.51839199 -33.58558472 62.89265804 -33.60009766 58.2668457 C-33.61347112 54.45410357 -33.64140701 50.64189226 -33.68212891 46.8293457 C-33.73152407 42.20235183 -33.75622464 37.57584127 -33.76332474 32.94859505 C-33.77001625 31.19397748 -33.78518337 29.43936984 -33.80921555 27.6849041 C-34.02261876 11.1766233 -34.02261876 11.1766233 -29.67935181 5.51087952 C-21.59296131 -2.39586904 -10.5701055 -4.64644221 0 0 Z " fill="#1D2945" transform="translate(463.25,158.88671875)"/>
<path d="M0 0 C6.70303332 3.42918104 10.53012033 8.34733657 13.125 15.3125 C13.59527618 18.33886153 13.55302051 21.25762419 13.4375 24.3125 C13.42783203 25.04855469 13.41816406 25.78460938 13.40820312 26.54296875 C13.25540425 34.47522356 12.64729025 42.39774663 12.125 50.3125 C13.11306641 50.29155273 14.10113281 50.27060547 15.11914062 50.24902344 C18.81658191 50.17612992 22.51396087 50.13052306 26.21191406 50.09277344 C27.80642408 50.07276947 29.40086178 50.04555699 30.99511719 50.01074219 C47.58172845 49.65783556 47.58172845 49.65783556 54.125 54.3125 C58.93581783 60.35686086 59.97312522 65.76182966 59.125 73.3125 C56.35054036 78.86141927 51.95389134 83.06996565 46.125 85.3125 C43.40605045 85.4808504 40.79396045 85.54544575 38.078125 85.5078125 C37.30692322 85.5049826 36.53572144 85.50215271 35.7411499 85.49923706 C33.28560668 85.48807013 30.8304324 85.46297229 28.375 85.4375 C26.70703653 85.42746568 25.03906732 85.41834061 23.37109375 85.41015625 C19.28892103 85.38814225 15.207023 85.35363667 11.125 85.3125 C11.18640898 93.38875605 11.26365561 101.46464391 11.36071491 109.5405426 C11.40530241 113.29116639 11.44458339 117.04168446 11.47143555 120.79248047 C11.49758551 124.41721364 11.53806848 128.04153744 11.58818626 131.66601562 C11.60477647 133.04373046 11.61633936 134.42151597 11.62261391 135.79931641 C11.63140637 148.40686118 11.63140637 148.40686118 17.5625 159.1875 C23.17088986 163.83835989 28.0088163 163.96126888 35.125 163.3125 C38.48061022 162.23187976 41.14236708 160.98356638 44.046875 159 C49.10648966 155.54847992 51.96532279 154.53031877 58.125 155.3125 C63.72377228 157.17875743 67.36450627 159.31966067 70.375 164.4375 C71.89413158 170.26083772 71.90131308 175.40406368 69.625 181 C61.11620469 193.60013243 46.77144043 197.18321191 32.6875 200 C14.44115707 201.6005564 -1.70478369 198.60129438 -16.3828125 187.3984375 C-26.49783299 178.05262009 -31.91522044 163.81030859 -32.875 150.3125 C-33.00650091 145.20655864 -32.99190693 140.10311767 -32.97265625 134.99609375 C-32.97078761 133.52922107 -32.96936581 132.06234777 -32.96836853 130.59547424 C-32.96457848 126.76344025 -32.95477882 122.93144508 -32.94366455 119.09942627 C-32.9333743 115.17761765 -32.92885471 111.25580265 -32.92382812 107.33398438 C-32.91315286 99.66013869 -32.89611943 91.98632482 -32.875 84.3125 C-33.73665771 84.3439209 -33.73665771 84.3439209 -34.61572266 84.37597656 C-37.24363374 84.45963764 -39.8712639 84.5113146 -42.5 84.5625 C-43.40363281 84.59601563 -44.30726563 84.62953125 -45.23828125 84.6640625 C-51.00342217 84.74822514 -54.32342471 84.21588538 -58.875 80.3125 C-62.74995559 76.12335882 -63.70488739 73.56649204 -64.125 68 C-63.78743482 63.02091355 -62.73815862 59.23172589 -59.1875 55.57421875 C-55.28081064 52.1640045 -52.80800411 50.17961331 -47.5234375 50.21484375 C-46.67265625 50.21806641 -45.821875 50.22128906 -44.9453125 50.22460938 C-44.05585938 50.23298828 -43.16640625 50.24136719 -42.25 50.25 C-41.3528125 50.25451172 -40.455625 50.25902344 -39.53125 50.26367188 C-37.31243352 50.27547409 -35.09374982 50.29193845 -32.875 50.3125 C-32.89820313 49.5803125 -32.92140625 48.848125 -32.9453125 48.09375 C-33.07992332 40.01710107 -32.73258367 31.99440271 -32.1875 23.9375 C-32.13416504 22.91591797 -32.08083008 21.89433594 -32.02587891 20.84179688 C-31.47133628 13.47516114 -29.78883725 7.75907798 -24.1081543 2.7565918 C-16.84270506 -2.64548116 -8.38871529 -3.49060636 0 0 Z " fill="#1D2A45" transform="translate(344.875,110.6875)"/>
<path d="M0 0 C8.76382816 7.90181228 8.92277361 19.60286672 9.625 30.5 C10.48172875 43.09929868 11.55491472 55.67285479 12.6875 68.25 C12.85892805 70.16543499 13.0302322 72.08088106 13.20141602 73.99633789 C13.92391583 82.07147732 14.64828294 90.14642605 15.38574219 98.22021484 C15.86309075 103.45138042 16.33085757 108.68333582 16.79302979 113.91586304 C16.96911145 115.89031086 17.14845546 117.86447119 17.33148193 119.83828735 C18.276379 130.04236059 18.97851607 140.19371396 19.046875 150.4453125 C19.05704651 151.31293213 19.06721802 152.18055176 19.07769775 153.07446289 C19.05116745 160.90806653 17.2138008 165.99753165 12.0859375 171.9375 C6.21545398 177.73550841 -1.44288117 180.980285 -9.6875 181.4375 C-17.83659649 180.98558231 -25.54212108 177.80852973 -31.33869934 172.04705811 C-37.97558748 164.47409392 -39.0072801 156.29409164 -39.33203125 146.546875 C-39.39154465 145.28466125 -39.45105804 144.02244751 -39.51237488 142.72198486 C-39.66507893 139.38713735 -39.79801009 136.05270681 -39.92150879 132.71673584 C-40.02557779 130.02623644 -40.14875276 127.33677905 -40.27310658 124.64715195 C-40.89798922 111.11680589 -40.89798922 111.11680589 -41.08657837 104.39245605 C-41.15741689 101.96736664 -41.25994922 99.54309498 -41.38583374 97.12023926 C-41.42955109 95.87818726 -41.47326843 94.63613525 -41.51831055 93.35644531 C-41.56980759 92.23635071 -41.62130463 91.1162561 -41.67436218 89.96221924 C-41.03443809 85.98657525 -39.4811579 84.76753519 -36.375 82.3125 C-35.48167969 81.74273437 -34.58835937 81.17296875 -33.66796875 80.5859375 C-31.13843672 78.90489417 -29.74654892 77.52572501 -28.1875 74.9375 C-27.77047878 71.8532691 -27.77047878 71.8532691 -28.1875 68.9375 C-30.05011651 66.68339841 -30.05011651 66.68339841 -32.9375 66.5 C-36.31510116 66.95467708 -36.96807903 67.32312364 -39.390625 69.46484375 C-40.77507813 70.68880859 -40.77507813 70.68880859 -42.1875 71.9375 C-42.2572076 64.36582194 -42.31041623 56.79417744 -42.34293652 49.22225094 C-42.35854978 45.70575002 -42.37970765 42.1894697 -42.41381836 38.6730957 C-42.45284335 34.62449095 -42.46724501 30.57611561 -42.48046875 26.52734375 C-42.49595261 25.27291977 -42.51143646 24.01849579 -42.52738953 22.72605896 C-42.52909095 13.86054019 -41.6042045 7.52762895 -35.1875 0.9375 C-24.17205591 -7.10263857 -11.50003026 -7.44119605 0 0 Z " fill="#A190CD" transform="translate(942.1875,131.0625)"/>
<path d="M0 0 C9.25175752 6.5657634 15.57319485 15.49971428 17.80859375 26.7109375 C19.23783501 41.16702598 18.41134096 53.95597847 9.93359375 66.1484375 C4.03483087 73.29936743 -2.7167281 78.60923074 -12.19140625 79.7109375 C-22.0936295 80.43852021 -30.6024617 78.77777304 -38.3828125 72.359375 C-46.00693749 65.4103885 -51.51937321 56.03117006 -52.3684082 45.51953125 C-52.78632106 29.34913398 -51.86423936 17.06405777 -40.4140625 4.80859375 C-29.53643786 -5.71311679 -13.12327323 -7.71957249 0 0 Z " fill="#FBF7F2" transform="translate(693.19140625,196.2890625)"/>
<path d="M0 0 C7.39389586 4.2435397 12.65808021 9.9987756 15.84375 17.94921875 C18.19865595 27.10251389 16.96393256 36.4825274 12.28125 44.6171875 C7.7618133 51.27080265 1.1699886 56.05048052 -6.5 58.5 C-16.20806557 59.49061894 -24.22706507 59.1737753 -32.5 53.5 C-33.5725 52.819375 -34.645 52.13875 -35.75 51.4375 C-40.72280428 47.03139706 -45.0022778 38.18050302 -45.703125 31.58984375 C-45.90717511 22.22054281 -43.57346382 14.77570352 -37.53125 7.54296875 C-27.35821579 -2.68875604 -13.36109122 -6.20035507 0 0 Z " fill="#5D99BA" transform="translate(814.5,54.5)"/>
<path d="M0 0 C8.79308318 4.99952932 14.25728754 11.13766054 17.3125 20.8125 C18.30431026 31.22650776 17.2949579 40.02192763 10.5625 48.4375 C3.74884482 55.53579874 -3.07856059 58.64173182 -12.9375 58.9375 C-22.53394389 58.64030743 -28.64736437 55.85541004 -35.64453125 49.375 C-42.85004603 41.58864851 -43.97178962 33.97152176 -43.78515625 23.69140625 C-43.50405438 18.31048133 -41.75519715 14.63991639 -38.4375 10.4375 C-37.715625 9.385625 -36.99375 8.33375 -36.25 7.25 C-26.37603379 -2.62396621 -12.95250715 -6.14917006 0 0 Z " fill="#A190CD" transform="translate(941.4375,54.5625)"/>
<path d="M0 0 C4.88955645 0.18184301 7.77719587 3.54222071 11.328125 6.58203125 C21.74956273 14.79424607 35.08260781 16.82769439 48 15.6875 C58.61626675 13.85408061 68.49161899 10.41009583 76.109375 2.49609375 C78 0.6875 78 0.6875 81.0625 0.25 C84 0.6875 84 0.6875 85.875 1.8125 C87.65952249 4.78670415 87.64846 6.25066202 87 9.6875 C79.96504743 20.98401038 67.21364717 25.37331034 55 28.6875 C37.24411781 31.82319663 19.65330974 29.35525334 4.5625 19.25 C0.69830139 16.37518558 -2.40047838 13.76008388 -5 9.6875 C-5.67258324 4.78725066 -5.37076108 1.23079941 0 0 Z " fill="#1E2C49" transform="translate(828,196.3125)"/>
<path d="M0 0 C3.4375 1.5 3.4375 1.5 6 3 C6 2.34 6 1.68 6 1 C7.65 1 9.3 1 11 1 C11.0744013 5.32328804 11.12871968 9.64623255 11.16479492 13.9699707 C11.17984066 15.43943782 11.20028238 16.90886034 11.22631836 18.37817383 C11.26288955 20.4957177 11.27976801 22.61266565 11.29296875 24.73046875 C11.3086792 26.00301514 11.32438965 27.27556152 11.34057617 28.58666992 C10.97403785 32.2601984 10.21288038 34.0832462 8 37 C2.82350738 40.75295715 -2.84399383 40.72973933 -9 40 C-12.1875 38.5 -12.1875 38.5 -14 37 C-13.67 35.35 -13.34 33.7 -13 32 C-10.83125748 32.50603992 -9.00032373 32.99983813 -7 34 C-1.11834264 34.46588282 -1.11834264 34.46588282 4 32 C4.73606499 28.43230448 4.73606499 28.43230448 5 25 C4.319375 25.495 3.63875 25.99 2.9375 26.5 C-0.70247525 28.35871077 -2.95462873 28.43343264 -7 28 C-11.56138 26.09058512 -13.8338521 23.4125235 -16 19 C-16.81203318 13.95555147 -16.57428068 10.16983102 -14.3125 5.5625 C-9.89972789 0.67267144 -6.6276687 -0.69764934 0 0 Z " fill="#748097" transform="translate(687,359)"/>
<path d="M0 0 C1.65 0 3.3 0 5 0 C5 13.2 5 26.4 5 40 C3.35 40 1.7 40 0 40 C-0.33 39.34 -0.66 38.68 -1 38 C-1.680625 38.495 -2.36125 38.99 -3.0625 39.5 C-6.74140375 41.37858915 -8.9091225 41.50238846 -13 41 C-16.9454715 39.1031387 -18.65184731 37.59185958 -20.875 33.8125 C-22.63302027 27.85476466 -23.13603241 23.27206482 -20.3125 17.625 C-17.50666632 14.43999961 -15.39237172 12.35010318 -11.078125 11.71875 C-5.99861666 11.48959925 -4.79739995 12.12156003 0 15 C0 10.05 0 5.1 0 0 Z " fill="#737F94" transform="translate(589,347)"/>
<path d="M0 0 C4.69994029 1.71728588 7.20959499 3.86606666 10 8 C11.24199848 11.72599543 11.53508555 15.12979217 11 19 C8.30455136 24.10209922 5.4785689 27.17381037 0 29 C-5.53571994 29.65126117 -8.7978739 28.56677692 -13.265625 25.484375 C-16.91436924 22.36157588 -17.84632227 19.20746791 -18.4375 14.5625 C-17.72602924 8.76909525 -15.59058404 5.40983586 -11.25 1.5625 C-7.24874388 -0.36118083 -4.3544501 -0.71412982 0 0 Z " fill="#79859A" transform="translate(655,359)"/>
<path d="M0 0 C3.69462642 2.43509469 6.11611119 4.50271338 7.3203125 8.890625 C8.18486239 14.29866047 7.58663261 17.99022457 4.75 22.8125 C1.3478241 26.61493189 -1.95427132 27.62961919 -6.90234375 27.9765625 C-11.9797195 27.62173757 -15.76059959 25.34844417 -19.25 21.75 C-21.27308597 15.80718497 -21.29405523 9.97794788 -18.5625 4.3125 C-13.09066853 -1.60299348 -7.50947367 -2.74384615 0 0 Z " fill="#737F94" transform="translate(433.25,360.1875)"/>
<path d="M0 0 C2.4354012 1.51101534 3.81241305 2.81395051 4.85546875 5.49609375 C4.89671875 6.07359375 4.93796875 6.65109375 4.98046875 7.24609375 C3.00046875 8.23609375 3.00046875 8.23609375 0.98046875 9.24609375 C0.32046875 8.58609375 -0.33953125 7.92609375 -1.01953125 7.24609375 C-5.09065367 4.53201214 -7.19712295 4.77175851 -12.01953125 5.24609375 C-14.26872205 7.07312602 -14.26872205 7.07312602 -14.26953125 9.74609375 C-14.26872205 12.41906148 -14.26872205 12.41906148 -12.01953125 14.24609375 C-9.92994646 14.89891083 -7.82257722 15.49556623 -5.70703125 16.05859375 C3.22521686 18.75605363 3.22521686 18.75605363 5.98046875 23.24609375 C6.60013633 27.14999949 6.89816618 29.54179852 5.0234375 33.0234375 C2.4705891 36.33808828 0.03210402 38.30385299 -4.01953125 39.24609375 C-10.36998917 39.88113954 -15.65999788 38.90883162 -21.01953125 35.24609375 C-22.08203125 32.49609375 -22.08203125 32.49609375 -22.01953125 30.24609375 C-20.69953125 29.58609375 -19.37953125 28.92609375 -18.01953125 28.24609375 C-17.40078125 28.90609375 -16.78203125 29.56609375 -16.14453125 30.24609375 C-11.88461785 32.97243833 -7.97551181 33.00045539 -3.01953125 32.24609375 C-0.73224391 30.40725494 -0.73224391 30.40725494 -0.89453125 27.62109375 C-0.93578125 26.83734375 -0.97703125 26.05359375 -1.01953125 25.24609375 C-5.77452243 23.17783176 -5.77452243 23.17783176 -10.60546875 21.296875 C-11.48460937 20.97074219 -12.36375 20.64460938 -13.26953125 20.30859375 C-14.0996875 20.01082031 -14.92984375 19.71304687 -15.78515625 19.40625 C-18.43751314 18.02906469 -19.53549963 16.82906017 -21.01953125 14.24609375 C-21.68035198 11.16777053 -21.61961697 8.33460834 -21.01953125 5.24609375 C-16.01120744 -1.2511912 -7.73319623 -2.88686049 0 0 Z " fill="#717D93" transform="translate(281.01953125,348.75390625)"/>
<path d="M0 0 C2.75277206 1.87994189 3.36426308 2.73165637 4.5625 5.75 C4.8972168 8.02416992 4.8972168 8.02416992 5.01171875 10.48046875 C5.05490234 11.36541016 5.09808594 12.25035156 5.14257812 13.16210938 C5.19575195 14.53592773 5.19575195 14.53592773 5.25 15.9375 C5.29705078 16.86498047 5.34410156 17.79246094 5.39257812 18.74804688 C5.61787137 23.79683166 5.61787137 23.79683166 5.5625 25.75 C4.5625 26.75 4.5625 26.75 2 26.8125 C1.195625 26.791875 0.39125 26.77125 -0.4375 26.75 C-0.4375 25.76 -0.4375 24.77 -0.4375 23.75 C-1.25734375 24.47896484 -1.25734375 24.47896484 -2.09375 25.22265625 C-6.19767717 27.89704879 -10.71171262 27.38920224 -15.4375 26.75 C-18.69152611 24.73560288 -19.21614401 23.40023321 -20.4375 19.8125 C-20.4375 16.75 -20.4375 16.75 -18.8125 14 C-14.02717519 9.46653439 -9.77902773 9.55031914 -3.44921875 9.6796875 C-2.45341797 9.71449219 -2.45341797 9.71449219 -1.4375 9.75 C-1.7675 8.1 -2.0975 6.45 -2.4375 4.75 C-3.8745809 4.69577053 -5.31225462 4.65710277 -6.75 4.625 C-7.95076172 4.59019531 -7.95076172 4.59019531 -9.17578125 4.5546875 C-11.72138576 4.59182678 -11.72138576 4.59182678 -14.4375 6.75 C-16.625 6.375 -16.625 6.375 -18.4375 5.75 C-18.14238433 2.89721517 -17.62517059 1.91421177 -15.4375 0 C-10.11907497 -2.21601043 -5.37279906 -1.95374511 0 0 Z " fill="#768197" transform="translate(335.4375,360.25)"/>
<path d="M0 0 C4.36350222 2.22291622 7.09544338 4.45022584 9 9 C9 11.31 9 13.62 9 16 C2.4 16 -4.2 16 -11 16 C-8.83333333 21.83333333 -8.83333333 21.83333333 -6 23 C-2.51044604 23.30343947 -0.62494296 23.39470082 2.375 21.5 C2.91125 21.005 3.4475 20.51 4 20 C5.32 20.66 6.64 21.32 8 22 C8 22.99 8 23.98 8 25 C2.955938 27.93472698 -1.01739079 29.96149077 -7 29 C-10.64610142 27.31973833 -13.96568597 25.57322846 -16.20703125 22.1640625 C-17.77206232 17.89299249 -17.5244612 13.46763248 -17 9 C-13.47207525 1.68282275 -8.13494164 -1.43557794 0 0 Z " fill="#707B91" transform="translate(553,359)"/>
<path d="M0 0 C4.10746873 1.77367968 6.69875485 4.16459142 9 8 C9 10.64 9 13.28 9 16 C2.4 16 -4.2 16 -11 16 C-9.52360997 21.06008639 -9.52360997 21.06008639 -6 23 C-2.47704517 23.37478243 -0.65118137 23.41127245 2.375 21.5 C2.91125 21.005 3.4475 20.51 4 20 C5.32 20.66 6.64 21.32 8 22 C7.9375 23.8125 7.9375 23.8125 7 26 C2.33578451 28.81796352 -1.39008148 29.53644306 -6.78125 28.71484375 C-10.61699416 27.47903181 -13.43650184 25.06704244 -16 22 C-17.87664991 16.37005027 -17.93749151 10.90970492 -15.3125 5.5625 C-10.72573501 0.47986853 -6.71252848 -0.99596459 0 0 Z " fill="#727E93" transform="translate(809,359)"/>
<path d="M0 0 C4.10746873 1.77367968 6.69875485 4.16459142 9 8 C9 10.64 9 13.28 9 16 C2.4 16 -4.2 16 -11 16 C-8.83333333 21.83333333 -8.83333333 21.83333333 -6 23 C-2.51044604 23.30343947 -0.62494296 23.39470082 2.375 21.5 C2.91125 21.005 3.4475 20.51 4 20 C5.32 20.66 6.64 21.32 8 22 C6.96008872 25.01574271 6.03085171 25.97991051 3.3125 27.75 C-1.00579073 29.37954367 -4.4622109 29.92616221 -8.89453125 28.30859375 C-12.04909009 26.72135256 -13.82149191 25.24184967 -15.9375 22.375 C-17.81211335 16.42034584 -18.09384653 11.22820589 -15.3125 5.5625 C-10.72573501 0.47986853 -6.71252848 -0.99596459 0 0 Z " fill="#717E94" transform="translate(722,359)"/>
<path d="M0 0 C1.65 0 3.3 0 5 0 C5.33 4.95 5.66 9.9 6 15 C7.32 14.01 8.64 13.02 10 12 C14.99039002 11.45559382 18.00560122 11.91860666 22 15 C24.20192224 18.30288336 24.23959968 19.27462727 24.1953125 23.10546875 C24.18886719 24.08837891 24.18242188 25.07128906 24.17578125 26.08398438 C24.15902344 27.10814453 24.14226563 28.13230469 24.125 29.1875 C24.11597656 30.22326172 24.10695313 31.25902344 24.09765625 32.32617188 C24.0740786 34.88434685 24.0411703 37.44205748 24 40 C22.35 40 20.7 40 19 40 C18.98541748 39.44014404 18.97083496 38.88028809 18.95581055 38.3034668 C18.88128648 35.76411863 18.78464419 33.22607922 18.6875 30.6875 C18.66494141 29.80642578 18.64238281 28.92535156 18.61914062 28.01757812 C18.5659668 26.74624023 18.5659668 26.74624023 18.51171875 25.44921875 C18.48553467 24.66893311 18.45935059 23.88864746 18.43237305 23.0847168 C17.89233965 20.48090809 17.1491762 19.54337231 15 18 C11.42243314 17.99917465 11.42243314 17.99917465 8 19 C5.9859044 22.0211434 5.73163404 22.80660017 5.5859375 26.23046875 C5.54726563 27.03291016 5.50859375 27.83535156 5.46875 28.66210938 C5.4378125 29.49548828 5.406875 30.32886719 5.375 31.1875 C5.31699219 32.4549707 5.31699219 32.4549707 5.2578125 33.74804688 C5.16363721 35.83167524 5.08073325 37.91580753 5 40 C3.02 40 1.04 40 -1 40 C-1.02464775 34.46411467 -1.04283496 28.928261 -1.05493164 23.39233398 C-1.05997244 21.5075627 -1.06680498 19.62279535 -1.07543945 17.73803711 C-1.08751617 15.03498364 -1.09323068 12.33198169 -1.09765625 9.62890625 C-1.10281754 8.78099014 -1.10797882 7.93307404 -1.11329651 7.0594635 C-1.11349195 5.03928932 -1.06206211 3.01922066 -1 1 C-0.67 0.67 -0.34 0.34 0 0 Z " fill="#738095" transform="translate(761,347)"/>
<path d="M0 0 C1.98 0 3.96 0 6 0 C6.959938 2.06175364 7.91788424 4.12443469 8.875 6.1875 C9.40867187 7.33605469 9.94234375 8.48460937 10.4921875 9.66796875 C11.73886913 12.42294137 12.90661592 15.18161677 14 18 C16.26071155 14.60893267 17.65268823 11.08485863 19.125 7.3125 C19.40214844 6.61060547 19.67929687 5.90871094 19.96484375 5.18554688 C20.64635741 3.45826225 21.32359772 1.72929263 22 0 C23.98 0 25.96 0 28 0 C25.62235888 7.38238077 22.90976249 14.59915298 20.0625 21.8125 C19.63259766 22.93076172 19.20269531 24.04902344 18.75976562 25.20117188 C18.33501953 26.27560547 17.91027344 27.35003906 17.47265625 28.45703125 C17.09375244 29.42616455 16.71484863 30.39529785 16.32446289 31.39379883 C14.56415962 34.8576214 12.49378968 37.25310516 9 39 C6.6670134 39.04022391 4.33293334 39.04320247 2 39 C1.67 37.35 1.34 35.7 1 34 C2.11375 33.896875 3.2275 33.79375 4.375 33.6875 C5.57125 33.460625 6.7675 33.23375 8 33 C10.13881508 29.79177738 10.23338951 28.79867312 9.57861328 25.13134766 C8.35690724 20.63113931 6.34889203 16.42885842 4.4375 12.1875 C3.59976659 10.3073669 2.76497457 8.42591953 1.93359375 6.54296875 C1.56290771 5.71821045 1.19222168 4.89345215 0.81030273 4.04370117 C0 2 0 2 0 0 Z " fill="#738097" transform="translate(345,360)"/>
<path d="M0 0 C1.98 0 3.96 0 6 0 C6.02505615 0.56509277 6.0501123 1.13018555 6.07592773 1.71240234 C6.19179956 4.26683742 6.31456537 6.8208955 6.4375 9.375 C6.47681641 10.26445312 6.51613281 11.15390625 6.55664062 12.0703125 C6.59853516 12.92109375 6.64042969 13.771875 6.68359375 14.6484375 C6.72025146 15.43395996 6.75690918 16.21948242 6.79467773 17.02880859 C6.890891 19.07523496 6.890891 19.07523496 8 21 C9.27875 21.061875 10.5575 21.12375 11.875 21.1875 C12.59429687 21.22230469 13.31359375 21.25710938 14.0546875 21.29296875 C15.01761719 21.14794922 15.01761719 21.14794922 16 21 C18.0140956 17.9788566 18.26836596 17.19339983 18.4140625 13.76953125 C18.45273437 12.96708984 18.49140625 12.16464844 18.53125 11.33789062 C18.57765625 10.08782227 18.57765625 10.08782227 18.625 8.8125 C18.66367187 7.96751953 18.70234375 7.12253906 18.7421875 6.25195312 C18.83636279 4.16832476 18.91926675 2.08419247 19 0 C20.98 0 22.96 0 25 0 C25 8.91 25 17.82 25 27 C23.02 27 21.04 27 19 27 C18.67 26.34 18.34 25.68 18 25 C17.01 25.66 16.02 26.32 15 27 C10.3468056 27.66807132 6.30452548 27.95453084 2.4375 25.125 C0.23590386 21.87046657 -0.12114635 20.11029375 -0.09765625 16.2109375 C-0.09443359 15.26992188 -0.09121094 14.32890625 -0.08789062 13.359375 C-0.07951172 12.37453125 -0.07113281 11.3896875 -0.0625 10.375 C-0.05798828 9.38242187 -0.05347656 8.38984375 -0.04882812 7.3671875 C-0.03702145 4.9113984 -0.020554 2.45572896 0 0 Z " fill="#717D93" transform="translate(477,360)"/>
<path d="M0 0 C3.0625 1.25 3.0625 1.25 5 3 C5 4.32 5 5.64 5 7 C1 7 1 7 -1 6 C-2.99960012 5.960008 -5.00047242 5.95653201 -7 6 C-7 7.32 -7 8.64 -7 10 C-6.15695312 10.25394531 -5.31390625 10.50789063 -4.4453125 10.76953125 C-3.34960938 11.11371094 -2.25390625 11.45789063 -1.125 11.8125 C0.51082031 12.31716797 0.51082031 12.31716797 2.1796875 12.83203125 C5 14 5 14 7 17 C7.4375 19.875 7.4375 19.875 7 23 C4.44975635 26.10164769 2.82300753 27.72566416 -1 29 C-6.21930524 29.39390983 -9.58177416 28.87698427 -14 26 C-15.375 23.8125 -15.375 23.8125 -16 22 C-13.6875 21.375 -13.6875 21.375 -11 21 C-10.01 21.66 -9.02 22.32 -8 23 C-5.66800612 23.07905064 -3.33167378 23.08798769 -1 23 C-0.67 21.68 -0.34 20.36 0 19 C-0.87011719 18.76216797 -0.87011719 18.76216797 -1.7578125 18.51953125 C-7.20543046 16.89243744 -11.23494787 15.35953405 -15 11 C-15.22278706 6.7670459 -14.68808616 4.83860501 -12 1.5625 C-7.89970755 -0.57306898 -4.534482 -0.68058229 0 0 Z " fill="#778298" transform="translate(524,359)"/>
<path d="M0 0 C1.22589844 0.15275391 1.22589844 0.15275391 2.4765625 0.30859375 C3.41628906 0.43427734 3.41628906 0.43427734 4.375 0.5625 C4.045 2.2125 3.715 3.8625 3.375 5.5625 C2.405625 5.541875 1.43625 5.52125 0.4375 5.5 C-2.49965895 5.20631501 -2.49965895 5.20631501 -3.625 6.5625 C-3.99260731 8.89067964 -4.32741581 11.2243385 -4.625 13.5625 C-2.315 13.5625 -0.005 13.5625 2.375 13.5625 C2.375 14.8825 2.375 16.2025 2.375 17.5625 C0.065 17.5625 -2.245 17.5625 -4.625 17.5625 C-4.625 25.1525 -4.625 32.7425 -4.625 40.5625 C-6.605 40.5625 -8.585 40.5625 -10.625 40.5625 C-10.625 32.9725 -10.625 25.3825 -10.625 17.5625 C-11.945 17.5625 -13.265 17.5625 -14.625 17.5625 C-14.625 15.9125 -14.625 14.2625 -14.625 12.5625 C-13.305 12.5625 -11.985 12.5625 -10.625 12.5625 C-10.7075 11.510625 -10.79 10.45875 -10.875 9.375 C-10.58769651 4.99362175 -9.67654419 3.61404419 -6.625 0.5625 C-4.10446405 -0.69776798 -2.7707902 -0.35624445 0 0 Z " fill="#748094" transform="translate(406.625,346.4375)"/>
<path d="M0 0 C2.5625 1.8125 2.5625 1.8125 3.4375 4.5 C3.47875 5.263125 3.52 6.02625 3.5625 6.8125 C1.8125 7.5 1.8125 7.5 -0.4375 7.8125 C-1.035625 7.3175 -1.63375 6.8225 -2.25 6.3125 C-4.49426794 4.455389 -4.49426794 4.455389 -8.0625 4.9375 C-11.69685918 5.47980764 -11.69685918 5.47980764 -13.4375 8.8125 C-14.11648233 13.09956286 -14.11507662 16.67417128 -11.875 20.4375 C-8.39757281 22.39912559 -6.22316071 21.79396759 -2.4375 20.8125 C-1.7775 20.1525 -1.1175 19.4925 -0.4375 18.8125 C1.6875 19.1875 1.6875 19.1875 3.5625 19.8125 C3.5625 23.8125 3.5625 23.8125 1.96484375 25.53515625 C-1.12445138 27.17775707 -3.38590536 27.24596636 -6.875 27.25 C-7.98746094 27.26933594 -9.09992188 27.28867187 -10.24609375 27.30859375 C-14.11103019 26.70780192 -15.69765008 25.5620143 -18.4375 22.8125 C-21.64146836 18.11854028 -21.15621291 12.24277533 -20.4375 6.8125 C-18.85720721 3.5134027 -16.52832164 1.64001986 -13.625 -0.5625 C-8.73882353 -1.95855042 -4.70417501 -1.62507864 0 0 Z " fill="#707C92" transform="translate(466.4375,360.1875)"/>
<path d="M0 0 C0 2.97 0 5.94 0 9 C2.64 9 5.28 9 8 9 C8 10.32 8 11.64 8 13 C5.36 13 2.72 13 0 13 C0.14021805 15.64624284 0.28689776 18.29184578 0.4375 20.9375 C0.47681641 21.69224609 0.51613281 22.44699219 0.55664062 23.22460938 C0.44038024 26.91944187 0.44038024 26.91944187 2 30 C4.32817964 30.36760731 6.6618385 30.70241581 9 31 C9.33 32.32 9.66 33.64 10 35 C7.58946598 36.20526701 5.81450503 36.305818 3.125 36.4375 C2.26132812 36.49808594 1.39765625 36.55867188 0.5078125 36.62109375 C-2 36 -2 36 -4.3046875 33.49609375 C-6.36386765 29.24962777 -6.46750017 26.2510613 -6.25 21.625 C-6.23195313 20.88894531 -6.21390625 20.15289062 -6.1953125 19.39453125 C-6.14859176 17.59578264 -6.07686183 15.79771289 -6 14 C-7.32 14 -8.64 14 -10 14 C-10 12.02 -10 10.04 -10 8 C-8.68 8 -7.36 8 -6 8 C-6 5.69 -6 3.38 -6 1 C-4 0 -4 0 0 0 Z " fill="#758196" transform="translate(745,351)"/>
<path d="M0 0 C3.67643522 0.46800448 5.84949061 1.96041777 8.94921875 3.9765625 C10.09336449 4.71023695 11.23790059 5.44330299 12.3828125 6.17578125 C12.9485498 6.5423584 13.51428711 6.90893555 14.09716797 7.28662109 C16.53424931 8.84580983 19.02161443 10.31649721 21.51171875 11.7890625 C25.64709424 14.23693799 25.64709424 14.23693799 26.76171875 15.3515625 C26.94921875 17.7890625 26.94921875 17.7890625 26.76171875 20.3515625 C26.10171875 21.0115625 25.44171875 21.6715625 24.76171875 22.3515625 C19.35159705 22.12647571 15.37772324 19.76387638 10.82421875 17.1015625 C10.14681641 16.71871094 9.46941406 16.33585937 8.77148438 15.94140625 C4.22614766 13.3353551 -0.10861123 10.58185851 -4.23828125 7.3515625 C-4.80078125 4.6640625 -4.80078125 4.6640625 -4.23828125 2.3515625 C-2.23828125 0.3515625 -2.23828125 0.3515625 0 0 Z " fill="#619DBE" transform="translate(710.23828125,34.6484375)"/>
<path d="M0 0 C2.0625 0.4375 2.0625 0.4375 4 1 C4 3.64 4 6.28 4 9 C6.97 9 9.94 9 13 9 C13 10.32 13 11.64 13 13 C10.03 13 7.06 13 4 13 C4.33 18.94 4.66 24.88 5 31 C7.64 31 10.28 31 13 31 C13.33 32.32 13.66 33.64 14 35 C10.59304531 37.41325957 7.77248985 37.10241475 3.8359375 36.48046875 C1.45584482 35.85759343 0.34634263 35.05911226 -1 33 C-2.25433458 29.23699626 -2.10695422 25.72789091 -2.0625 21.8125 C-2.05798828 21.06291016 -2.05347656 20.31332031 -2.04882812 19.54101562 C-2.03706354 17.69397617 -2.01912865 15.84697787 -2 14 C-3.32 14 -4.64 14 -6 14 C-6 12.35 -6 10.7 -6 9 C-4.35 9 -2.7 9 -1 9 C-1.020625 7.700625 -1.04125 6.40125 -1.0625 5.0625 C-1.08399454 3.70834367 -1.07148199 2.35243917 -1 1 C-0.67 0.67 -0.34 0.34 0 0 Z " fill="#6E7B92" transform="translate(297,351)"/>
<path d="M0 0 C1.32 0 2.64 0 4 0 C4 2.97 4 5.94 4 9 C6.97 9 9.94 9 13 9 C13 10.32 13 11.64 13 13 C10.36 13 7.72 13 5 13 C5.33 18.61 5.66 24.22 6 30 C7.32 30.33 8.64 30.66 10 31 C11.33333333 31.33333333 12.66666667 31.66666667 14 32 C13.67 33.32 13.34 34.64 13 36 C11.41820385 36.10867302 9.83422847 36.18589827 8.25 36.25 C7.36828125 36.29640625 6.4865625 36.3428125 5.578125 36.390625 C3 36 3 36 0.6875 34.59375 C-1.89945402 30.61750586 -1.42783483 26.88054543 -1.25 22.25 C-1.23195313 21.36183594 -1.21390625 20.47367187 -1.1953125 19.55859375 C-1.14827374 17.37129152 -1.08257009 15.18620184 -1 13 C-2.65 13 -4.3 13 -6 13 C-6 11.68 -6 10.36 -6 9 C-4.35 9 -2.7 9 -1 9 C-1.020625 7.700625 -1.04125 6.40125 -1.0625 5.0625 C-1.08399454 3.70834367 -1.07148199 2.35243917 -1 1 C-0.67 0.67 -0.34 0.34 0 0 Z " fill="#717E94" transform="translate(620,351)"/>
<path d="M0 0 C1 1 1 1 1.0625 4.0625 C1.041875 5.031875 1.02125 6.00125 1 7 C-4.64664804 9.72249102 -10.35456262 11.89117332 -16.3125 13.8125 C-17.00601563 14.04348389 -17.69953125 14.27446777 -18.4140625 14.51245117 C-24.75276291 16.50406469 -24.75276291 16.50406469 -28 15 C-28.66 14.34 -29.32 13.68 -30 13 C-29.921875 10.53515625 -29.921875 10.53515625 -29 8 C-22.00026629 3.07079821 -8.42678282 -2.56729943 0 0 Z " fill="#A292CF" transform="translate(1017,48)"/>
<path d="M0 0 C2.9375 2.0625 2.9375 2.0625 5 5 C5.56384126 8.94688882 5.37334779 11.19996903 3.6875 14.8125 C1.63674579 17.47088509 -0.0367587 18.82256081 -3.375 19.4375 C-6 19 -6 19 -8.8125 17.125 C-11.49838189 13.28802587 -11.67402996 10.90688436 -11.4140625 6.31640625 C-11 4 -11 4 -9.4375 1.375 C-5.99348099 -0.56777996 -3.89459726 -0.61493641 0 0 Z " fill="#F8F6F5" transform="translate(655,364)"/>
<path d="M0 0 C3.2464647 2.63775257 4.78302215 4.09651246 5.2578125 8.26171875 C5.03175064 12.28429005 4.43948951 14.45710119 1.875 17.625 C-1.93456629 19.44696649 -3.98338319 19.19010868 -8 18 C-10.78835334 15.1016652 -11.4314301 12.98185287 -11.4375 9 C-11.32085018 5.70464265 -11.14949389 4.25114974 -9.4375 1.375 C-5.96165205 -0.58573474 -3.92733107 -0.68900545 0 0 Z " fill="#F7F4F2" transform="translate(430,364)"/>
<path d="M0 0 C4.14182881 0.862881 5.56226471 2.18349135 8 5.625 C8.97383359 9.8251866 8.41597124 12.79305752 6.5 16.625 C3.47078078 19.04837538 1.71222167 19.37138885 -2.09375 19.1015625 C-4 18.625 -4 18.625 -6.5 16.625 C-8.41597124 12.79305752 -8.97383359 9.8251866 -8 5.625 C-5.56226471 2.18349135 -4.14182881 0.862881 0 0 Z " fill="#F8F6F3" transform="translate(581,363.375)"/>
<path d="M0 0 C3.5625 0.625 3.5625 0.625 6.5 2.625 C8.79386937 5.96153726 9.3170711 7.72462386 9.046875 11.6875 C8.18151083 15.14895669 6.42051731 16.63681405 3.5625 18.625 C0.5625 19.25 0.5625 19.25 -2.4375 18.625 C-5.29022289 16.64049712 -7.08017017 15.1661791 -7.88671875 11.6875 C-8.08770649 8.02813692 -7.58632645 5.91074678 -5.875 2.625 C-3.4375 0.625 -3.4375 0.625 0 0 Z " fill="#F5F2EF" transform="translate(684.4375,363.375)"/>
<path d="M0 0 C7.73214467 0.38660723 17.63746631 1.62487105 23.8984375 6.46875 C25 8 25 8 24.75 10.625 C24 13 24 13 23 14 C15.43859146 13.62192957 4.52537896 12.52537896 -1 7 C-1.1875 3.9375 -1.1875 3.9375 -1 1 C-0.67 0.67 -0.34 0.34 0 0 Z " fill="#A494CF" transform="translate(987,80)"/>
<path d="M0 0 C1 1 1 1 1.0625 4.0625 C1.041875 5.031875 1.02125 6.00125 1 7 C-4.58025848 9.73076479 -9.74699016 10.42785388 -15.875 10.8125 C-17.01763306 10.89165649 -17.01763306 10.89165649 -18.18334961 10.97241211 C-20.11981685 11.06961432 -22.06158885 11.04377057 -24 11 C-24.66 10.34 -25.32 9.68 -26 9 C-25.67028521 5.70285207 -25.3773161 4.3773161 -23 2 C-15.57672601 0.25207793 -7.62391093 -0.70048754 0 0 Z " fill="#5F9DBD" transform="translate(736,72)"/>
<path d="M0 0 C2.46923828 0.12011719 2.46923828 0.12011719 5 1 C6.40966797 2.77832031 6.40966797 2.77832031 7.4921875 5.078125 C7.88664063 5.90957031 8.28109375 6.74101562 8.6875 7.59765625 C9.079375 8.47292969 9.47125 9.34820312 9.875 10.25 C10.29007813 11.10980469 10.70515625 11.96960938 11.1328125 12.85546875 C14.45624307 20.04515689 14.45624307 20.04515689 13 25 C12 26 12 26 9.4375 26.0625 C8.633125 26.041875 7.82875 26.02125 7 26 C-2.27025056 9.97239141 -2.27025056 9.97239141 -2 2 C-1.34 1.34 -0.68 0.68 0 0 Z " fill="#629FC0" transform="translate(741,17)"/>
<path d="M0 0 C2.4375 0.1875 2.4375 0.1875 3.4375 1.1875 C3.4375 9.77838658 -0.20024657 16.00261199 -4.5625 23.1875 C-5.5625 24.1875 -5.5625 24.1875 -8 24.375 C-10.5625 24.1875 -10.5625 24.1875 -12.5625 22.1875 C-12.29416279 16.82730067 -10.72590809 13.01986497 -8.125 8.375 C-7.50753906 7.25480469 -6.89007812 6.13460938 -6.25390625 4.98046875 C-3.38788549 0.24789406 -3.38788549 0.24789406 0 0 Z " fill="#A190CD" transform="translate(983.5625,21.8125)"/>
<path d="M0 0 C0.38218767 1.65614657 0.71395102 3.32457024 1 5 C0 6 0 6 -3.4375 6.375 C-5.2009375 6.684375 -5.2009375 6.684375 -7 7 C-9.0140956 10.0211434 -9.26836596 10.80660017 -9.4140625 14.23046875 C-9.45273437 15.03291016 -9.49140625 15.83535156 -9.53125 16.66210938 C-9.5621875 17.49548828 -9.593125 18.32886719 -9.625 19.1875 C-9.66367187 20.03248047 -9.70234375 20.87746094 -9.7421875 21.74804688 C-9.83636279 23.83167524 -9.91926675 25.91580753 -10 28 C-11.98 28 -13.96 28 -16 28 C-16 19.09 -16 10.18 -16 1 C-14.02 1 -12.04 1 -10 1 C-9.67 1.66 -9.34 2.32 -9 3 C-8.443125 2.505 -7.88625 2.01 -7.3125 1.5 C-4.61837017 -0.24754367 -3.14624993 -0.26218749 0 0 Z " fill="#717E94" transform="translate(841,359)"/>
<path d="M0 0 C2.875 2.6875 2.875 2.6875 5 6 C4.8125 9.875 4.8125 9.875 4 13 C1.03 13 -1.94 13 -5 13 C-4.67 12.34 -4.34 11.68 -4 11 C-7.63 10.67 -11.26 10.34 -15 10 C-14.67 8.35 -14.34 6.7 -14 5 C-13.01 4.34 -12.02 3.68 -11 3 C-10.690625 2.319375 -10.38125 1.63875 -10.0625 0.9375 C-9 -1 -9 -1 -7.1875 -1.875 C-4.16524738 -2.04770015 -2.65389214 -1.48876876 0 0 Z " fill="#778298" transform="translate(726,361)"/>
<path d="M0 0 C0.99 0.33 1.98 0.66 3 1 C2.01 1.495 2.01 1.495 1 2 C1 2.66 1 3.32 1 4 C1.66 4.33 2.32 4.66 3 5 C2.505 5.495 2.01 5.99 1.5 6.5 C-0.60232122 10.0038687 -0.37812488 13.00502848 0 17 C0.20625 17.78375 0.4125 18.5675 0.625 19.375 C0.74875 19.91125 0.8725 20.4475 1 21 C0.34 21.66 -0.32 22.32 -1 23 C-0.67 23.66 -0.34 24.32 0 25 C-2.54563057 24.03441599 -3.94635204 23.06131195 -5.75 21 C-7.56909857 16.63416342 -7.68635002 12.66270394 -7 8 C-5.00342873 4.14455202 -3.60292362 2.40194908 0 0 Z " fill="#69768D" transform="translate(678,360)"/>
<path d="M0 0 C1.21236328 0.02707031 1.21236328 0.02707031 2.44921875 0.0546875 C3.37154297 0.08949219 3.37154297 0.08949219 4.3125 0.125 C4.66680394 3.31373549 4.57203249 4.74089191 2.75 7.4375 C-0.55057634 9.72251439 -2.7578493 9.56162786 -6.6875 9.125 C-7.3475 8.465 -8.0075 7.805 -8.6875 7.125 C-8.5 4.625 -8.5 4.625 -7.6875 2.125 C-4.48369983 -0.01086678 -3.66810033 -0.10632175 0 0 Z " fill="#F1F0F0" transform="translate(329.6875,373.875)"/>
<path d="M0 0 C3 1 3 1 5 3 C4.34 3.66 3.68 4.32 3 5 C3.32041397 7.60280568 3.32041397 7.60280568 4 10 C6.31 10.33 8.62 10.66 11 11 C11 11.33 11 11.66 11 12 C9.02 12 7.04 12 5 12 C5 12.66 5 13.32 5 14 C6.65 14 8.3 14 10 14 C10 14.33 10 14.66 10 15 C1.95238095 15.61904762 1.95238095 15.61904762 -1.5 13.375 C-3.37499528 10.40625747 -4 8.52481354 -4 5 C-2.0625 2.125 -2.0625 2.125 0 0 Z " fill="#6F7B90" transform="translate(319,372)"/>
<path d="M0 0 C2.4375 1.8125 2.4375 1.8125 4 4 C4 4.99 4 5.98 4 7 C-0.95 7 -5.9 7 -11 7 C-9.30676242 0.22704966 -6.989962 -0.85841639 0 0 Z " fill="#F3F3F3" transform="translate(809,364)"/>
<path d="M0 0 C1.9375 1.25 1.9375 1.25 3 3 C3 4.32 3 5.64 3 7 C-1.62 7 -6.24 7 -11 7 C-10.67 5.35 -10.34 3.7 -10 2 C-6.30513897 -0.46324069 -4.36706908 -0.38991688 0 0 Z " fill="#F2F2F3" transform="translate(722,364)"/>
<path d="M0 0 C1.9375 1.25 1.9375 1.25 3 3 C3 4.32 3 5.64 3 7 C-1.62 7 -6.24 7 -11 7 C-10.67 5.35 -10.34 3.7 -10 2 C-6.30513897 -0.46324069 -4.36706908 -0.38991688 0 0 Z " fill="#F3F3F3" transform="translate(553,364)"/>
<path d="M0 0 C1.32 0.66 2.64 1.32 4 2 C4 2.99 4 3.98 4 5 C-1.08841463 7.96053215 -4.93924575 9.72729051 -11 9 C-11.66 8.34 -12.32 7.68 -13 7 C-12.67 6.01 -12.34 5.02 -12 4 C-9.36 4.33 -6.72 4.66 -4 5 C-4 4.34 -4 3.68 -4 3 C-2 1.375 -2 1.375 0 0 Z " fill="#7E8A9F" transform="translate(557,379)"/>
<path d="M0 0 C0.33 0 0.66 0 1 0 C1.2475 1.2375 1.495 2.475 1.75 3.75 C2.70578306 7.52634564 3.73843101 9.67030787 7 12 C9.64184541 12.79681318 9.64184541 12.79681318 12 13 C12 13.33 12 13.66 12 14 C10.35 14 8.7 14 7 14 C7 14.66 7 15.32 7 16 C7.66 16.33 8.32 16.66 9 17 C4.5428126 16.73781251 2.48477302 16.42288711 -0.9375 13.4375 C-1.618125 12.633125 -2.29875 11.82875 -3 11 C-2.67 10.01 -2.34 9.02 -2 8 C-1.67 8 -1.34 8 -1 8 C-0.67 5.36 -0.34 2.72 0 0 Z " fill="#69758C" transform="translate(642,370)"/>
<path d="M0 0 C0 3.57260683 -0.56135731 4.46634526 -3 7 C-6.30935077 8.07694127 -9.53641646 8.25921724 -13 8 C-16.125 6.0625 -16.125 6.0625 -18 4 C-17.67 3.01 -17.34 2.02 -17 1 C-12.25 1.875 -12.25 1.875 -10 3 C-5.20128976 3.50644046 -5.20128976 3.50644046 -1.0625 1.5 C-0.5365625 0.7575 -0.5365625 0.7575 0 0 Z " fill="#717E94" transform="translate(526,379)"/>
<path d="M0 0 C3.75504711 1.45356662 3.75504711 1.45356662 4.8125 3.8125 C5 6 5 6 4 11 C-1.94 11 -7.88 11 -14 11 C-14 10.67 -14 10.34 -14 10 C-9.38 9.67 -4.76 9.34 0 9 C-0.185625 7.88625 -0.37125 6.7725 -0.5625 5.625 C-1 2 -1 2 0 0 Z " fill="#7A849C" transform="translate(813,363)"/>
<path d="M0 0 C7.06533193 2.04109589 7.06533193 2.04109589 9 5 C8.6875 7.1875 8.6875 7.1875 8 9 C4 9 4 9 1.1875 6.75 C-1 4 -1 4 -0.8125 1.6875 C-0.4103125 0.8521875 -0.4103125 0.8521875 0 0 Z " fill="#788296" transform="translate(277,348)"/>
<path d="M0 0 C1.32 0.66 2.64 1.32 4 2 C4 2.99 4 3.98 4 5 C-5.41002278 6.51708428 -5.41002278 6.51708428 -10 4 C-9.34 3.01 -8.68 2.02 -8 1 C-5.36 1.33 -2.72 1.66 0 2 C0 1.34 0 0.68 0 0 Z " fill="#7D889D" transform="translate(429,382)"/>
<path d="M0 0 C0.99 0.66 1.98 1.32 3 2 C4.9896995 2.39013716 6.99019869 2.73202649 9 3 C8.67 4.32 8.34 5.64 8 7 C1.375 7.25 1.375 7.25 -2 5 C-2.33 4.01 -2.66 3.02 -3 2 C-2.01 1.34 -1.02 0.68 0 0 Z " fill="#7E8BA1" transform="translate(679,380)"/>
<path d="M0 0 C0.38218767 1.65614657 0.71395102 3.32457024 1 5 C0 6 0 6 -2.9375 6.1875 C-6 6 -6 6 -8 4 C-7.67 3.01 -7.34 2.02 -7 1 C-4.53721199 -0.231394 -2.7204945 -0.07159196 0 0 Z " fill="#7F8AA0" transform="translate(841,359)"/>
<path d="M0 0 C0.99 0.33 1.98 0.66 3 1 C1.73058503 4.91402949 0.48832306 6.79072873 -3 9 C-5 8 -5 8 -7 5 C-6.030625 4.360625 -5.06125 3.72125 -4.0625 3.0625 C-1.23963731 1.3034741 -1.23963731 1.3034741 0 0 Z " fill="#69768C" transform="translate(437,377)"/>
<path d="M0 0 C0.33 0 0.66 0 1 0 C1.05447047 1.41623216 1.09300508 2.83308191 1.125 4.25 C1.14820313 5.03890625 1.17140625 5.8278125 1.1953125 6.640625 C0.98012709 9.24006473 0.26013039 10.7410996 -1 13 C-1.33 13.99 -1.66 14.98 -2 16 C-3.65 16.33 -5.3 16.66 -7 17 C-6.34 16.67 -5.68 16.34 -5 16 C-5 15.34 -5 14.68 -5 14 C-7.31 14 -9.62 14 -12 14 C-12 13.67 -12 13.34 -12 13 C-10.39125 12.87625 -10.39125 12.87625 -8.75 12.75 C-4.59935708 11.91987142 -3.3248112 11.4872168 -1 8 C-0.39001612 5.29642739 -0.18553815 2.78307229 0 0 Z " fill="#6A7790" transform="translate(693,369)"/>
<path d="M0 0 C6.625 -0.25 6.625 -0.25 10 2 C9.67 2.66 9.34 3.32 9 4 C8.113125 3.95875 7.22625 3.9175 6.3125 3.875 C3.02722987 3.99897246 0.94550705 4.61387904 -2 6 C-1.49396008 3.83125748 -1.00016187 2.00032373 0 0 Z " fill="#7C889B" transform="translate(680,359)"/>
<path d="M0 0 C2.31 0.33 4.62 0.66 7 1 C7 1.99 7 2.98 7 4 C3.71023192 5.09658936 2.28696233 4.79953138 -1 4 C-0.67 2.68 -0.34 1.36 0 0 Z " fill="#7F8B9E" transform="translate(487,382)"/>
<path d="M0 0 C-0.33 1.32 -0.66 2.64 -1 4 C-3.64 4 -6.28 4 -9 4 C-9 3.67 -9 3.34 -9 3 C-7.02 3 -5.04 3 -3 3 C-3 2.34 -3 1.68 -3 1 C-4.65 1 -6.3 1 -8 1 C-4.93251126 -0.86240388 -3.40254489 -1.2151946 0 0 Z " fill="#69758B" transform="translate(634,383)"/>
<path d="M0 0 C1.65 0 3.3 0 5 0 C4.54554036 1.41791408 4.08625056 2.83428046 3.625 4.25 C3.36976563 5.03890625 3.11453125 5.8278125 2.8515625 6.640625 C2.04826333 8.86627958 1.10288338 10.90931672 0 13 C-1.40907283 10.18185434 -0.50872691 8.82722796 0.4375 5.875 C0.72496094 4.96492188 1.01242187 4.05484375 1.30859375 3.1171875 C1.53675781 2.41851562 1.76492188 1.71984375 2 1 C1.34 0.67 0.68 0.34 0 0 Z " fill="#6B788E" transform="translate(368,360)"/>
<path d="M0 0 C0.66 0.66 1.32 1.32 2 2 C1.34 3.65 0.68 5.3 0 7 C-1.32 6.67 -2.64 6.34 -4 6 C-3.6875 4.125 -3.6875 4.125 -3 2 C-2.01 1.34 -1.02 0.68 0 0 Z " fill="#818CA0" transform="translate(321,360)"/>
<path d="M0 0 C0.99 0.66 1.98 1.32 3 2 C2.34 3.32 1.68 4.64 1 6 C-1.475 5.01 -1.475 5.01 -4 4 C-3.34 3.67 -2.68 3.34 -2 3 C-2 2.34 -2 1.68 -2 1 C-1.34 0.67 -0.68 0.34 0 0 Z " fill="#878FA2" transform="translate(527,361)"/>
<path d="M0 0 C0 0.66 0 1.32 0 2 C-2.31 2.66 -4.62 3.32 -7 4 C-7.33 2.68 -7.66 1.36 -8 0 C-5.13822943 -1.43088528 -3.06624227 -0.59991697 0 0 Z " fill="#7C889C" transform="translate(551,360)"/>
<path d="M0 0 C2.97 0 5.94 0 9 0 C8.67 1.32 8.34 2.64 8 4 C6.35 3.67 4.7 3.34 3 3 C3 2.34 3 1.68 3 1 C2.01 0.67 1.02 0.34 0 0 Z " fill="#748198" transform="translate(301,360)"/>
<path d="M0 0 C0.99 0.66 1.98 1.32 3 2 C2.67 3.32 2.34 4.64 2 6 C0.0625 5.6875 0.0625 5.6875 -2 5 C-2.33 4.01 -2.66 3.02 -3 2 C-2.01 1.34 -1.02 0.68 0 0 Z " fill="#78859B" transform="translate(679,380)"/>
<path d="M0 0 C0.33 0 0.66 0 1 0 C1.3125 2.3125 1.3125 2.3125 1 5 C-1.375 6.875 -1.375 6.875 -4 8 C-4.66 7.67 -5.32 7.34 -6 7 C-5.02433888 5.83040013 -4.044375 4.66438823 -3.0625 3.5 C-2.51722656 2.8503125 -1.97195313 2.200625 -1.41015625 1.53125 C-0.71212891 0.77328125 -0.71212891 0.77328125 0 0 Z " fill="#F2F0F3" transform="translate(536,288)"/>
<path d="M0 0 C1.32 0.66 2.64 1.32 4 2 C2.25 5.875 2.25 5.875 0 7 C0.33 5.68 0.66 4.36 1 3 C0.01 2.67 -0.98 2.34 -2 2 C-1.34 1.34 -0.68 0.68 0 0 Z " fill="#7B889E" transform="translate(726,379)"/>
<path d="M0 0 C0.33 0 0.66 0 1 0 C1.33 2.64 1.66 5.28 2 8 C1.01 8.66 0.02 9.32 -1 10 C-1.125 2.25 -1.125 2.25 0 0 Z " fill="#9787BC" transform="translate(901,193)"/>
<path d="M0 0 C0.33 0 0.66 0 1 0 C1 4.29 1 8.58 1 13 C0.01 12.01 -0.98 11.02 -2 10 C-1.67 9.67 -1.34 9.34 -1 9 C-0.76807135 7.48530552 -0.58784762 5.96245438 -0.4375 4.4375 C-0.35371094 3.61121094 -0.26992188 2.78492188 -0.18359375 1.93359375 C-0.12300781 1.29550781 -0.06242188 0.65742188 0 0 Z " fill="#F3EFED" transform="translate(710,165)"/>
</svg>
