<?xml version="1.0" encoding="UTF-8"?>
<svg version="1.1" xmlns="http://www.w3.org/2000/svg" width="351" height="279">
<path d="M0 0 C115.83 0 231.66 0 351 0 C351 92.07 351 184.14 351 279 C235.17 279 119.34 279 0 279 C0 186.93 0 94.86 0 0 Z " fill="#1C263D" transform="translate(0,0)"/>
<path d="M0 0 C115.83 0 231.66 0 351 0 C351 92.07 351 184.14 351 279 C235.17 279 119.34 279 0 279 C0 186.93 0 94.86 0 0 Z M43 41 C33.94679111 53.12860894 31.39013755 64.5735018 31.51416016 79.53979492 C31.51200911 81.06389186 31.50812376 82.58798716 31.50265503 84.11207581 C31.49304032 88.21530937 31.50816385 92.31810137 31.52856112 96.42128158 C31.54625461 100.73318509 31.54260471 105.04507746 31.5418396 109.35700989 C31.54370669 116.5918406 31.56099295 123.8265025 31.58837891 131.0612793 C31.61985902 139.40813279 31.63037349 147.75480192 31.6289078 156.1017105 C31.62755386 165.01874821 31.64144827 173.93571555 31.65980101 182.85273194 C31.66404933 185.41004027 31.66548138 187.96733714 31.66627884 190.52464867 C31.66829752 194.55080901 31.68058642 198.57681649 31.70061111 202.60292625 C31.7064191 204.07463646 31.70892043 205.54636427 31.70775604 207.01808548 C31.69967821 223.45242789 34.8393409 236.54085047 46.515625 248.74609375 C57.9547532 259.12404496 70.55128841 263.11425307 85.72824097 263.13371277 C86.46306013 263.13597833 87.1978793 263.13824388 87.95496571 263.14057809 C90.39430996 263.14686104 92.83359783 263.14609243 95.27294922 263.14526367 C97.03128124 263.14825869 98.78961261 263.15166201 100.54794312 263.15544128 C105.30832311 263.1642497 110.06868512 263.16661804 114.82907248 263.16725707 C117.80684819 263.16796927 120.78461937 263.17010678 123.76239395 263.17275429 C134.16109761 263.18199664 144.55978847 263.18609049 154.95849609 263.18530273 C164.63556961 263.18470196 174.31258738 263.1952566 183.98964679 263.2110464 C192.31261579 263.22414051 200.63556659 263.22948586 208.9585458 263.22884732 C213.92303564 263.22859293 218.88747588 263.23141213 223.85195541 263.24202538 C228.52233815 263.25173809 233.19262418 263.25176384 237.86301041 263.24450874 C239.57135408 263.2434669 241.27970389 263.24580185 242.98803711 263.2518692 C261.16958981 263.31223194 276.30218349 260.53653206 289.8828125 247.37890625 C295.99604471 240.50997929 299.1913001 232.65655714 302 224 C302.33 223.01 302.66 222.02 303 221 C303.10213406 218.92625208 303.14372318 216.84935362 303.15390015 214.77311707 C303.16680084 212.81574615 303.16680084 212.81574615 303.17996216 210.8188324 C303.18439748 209.36904947 303.18869583 207.91926612 303.19287109 206.46948242 C303.20077377 204.94497491 303.20904282 203.42046926 303.21765137 201.89596558 C303.24387141 196.88248479 303.25918766 191.86899571 303.2734375 186.85546875 C303.27879883 185.12628995 303.28417634 183.39711121 303.28956985 181.66793251 C303.31120628 174.4680297 303.32993771 167.26812912 303.34119225 160.06820202 C303.35739379 149.77257061 303.39047002 139.47731889 303.44759309 129.18183059 C303.48643239 121.93235446 303.50584191 114.68297924 303.51111281 107.43340188 C303.51474968 103.11019012 303.52659042 98.78738328 303.55921555 94.4642849 C303.58954025 90.38722274 303.59552241 86.31080524 303.58383179 82.23365402 C303.58361301 80.74789195 303.5917529 79.26209784 303.60948563 77.77644157 C303.79489617 61.32914854 298.92900169 48.39082182 287.6875 36.25 C274.79410215 24.09990224 259.41879431 22.39737869 242.56445312 22.48242188 C240.74128157 22.47699039 238.91811442 22.46986202 237.09495544 22.46118164 C232.17960878 22.44306729 227.26460088 22.44996633 222.34924889 22.46269798 C217.18371095 22.47288766 212.01820031 22.46341584 206.85266113 22.45715332 C198.18118124 22.4498942 189.50983801 22.45941893 180.83837891 22.47851562 C170.84023157 22.50028097 160.84241062 22.49322837 150.84427118 22.47121 C142.23068545 22.45300641 133.61719746 22.45052186 125.00359869 22.46096468 C119.87193808 22.46717241 114.74043044 22.46811063 109.60877991 22.45481873 C104.78225127 22.44318839 99.95613982 22.45141602 95.12965584 22.47439575 C93.36774955 22.47964471 91.60580761 22.4782352 89.84391594 22.46934509 C71.72831775 22.38642727 55.00461907 26.2184088 43 41 Z " fill="#F9F3EE" transform="translate(0,0)"/>
<path d="M0 0 C2.30006717 1.49044353 3.52860251 2.93136073 4.953125 5.265625 C5.265625 8.390625 5.265625 8.390625 4.953125 11.265625 C2.953125 13.265625 2.953125 13.265625 0.140625 13.640625 C-3.73815407 13.18429805 -5.2105489 11.86559059 -8.046875 9.265625 C-10.61252225 7.98280137 -12.55720569 8.06170547 -15.421875 8.015625 C-16.37835938 7.98984375 -17.33484375 7.9640625 -18.3203125 7.9375 C-21.42579647 8.31122586 -22.75223566 9.19936209 -25.046875 11.265625 C-25.02162316 14.17601042 -25.02162316 14.17601042 -24.046875 17.265625 C-19.64712333 19.99279932 -15.11063841 21.03644034 -10.109375 22.078125 C-3.94107598 23.50049853 1.10658254 24.97331313 4.953125 30.265625 C7.58064562 35.19222616 7.22901905 39.96209527 5.953125 45.265625 C3.71566434 50.20668396 0.84964597 52.62072949 -4.08984375 54.5703125 C-12.83970519 56.62774359 -23.36652319 56.83724441 -31.375 52.3984375 C-33.69461463 50.826736 -35.46171598 49.60890356 -37.046875 47.265625 C-37.421875 44.140625 -37.421875 44.140625 -37.046875 41.265625 C-36.386875 40.605625 -35.726875 39.945625 -35.046875 39.265625 C-30.44543959 39.51661239 -28.13218998 39.91202176 -25.046875 43.265625 C-20.21258076 45.4017085 -16.24067758 45.67783155 -11.046875 45.265625 C-8.22906966 43.87677252 -8.22906966 43.87677252 -6.046875 42.265625 C-5.386875 42.265625 -4.726875 42.265625 -4.046875 42.265625 C-4.51641515 38.82454788 -4.51641515 38.82454788 -6.046875 35.265625 C-10.32177262 32.6056887 -14.71283103 31.88457113 -19.609375 30.828125 C-26.69346893 29.2683245 -31.28688742 26.90709176 -36.046875 21.265625 C-37.92858684 16.71815471 -37.55834974 11.68638818 -35.921875 7.140625 C-27.87553972 -5.1970891 -12.53304817 -5.37130636 0 0 Z " fill="#F4F4F5" transform="translate(97.046875,117.734375)"/>
<path d="M0 0 C3 0.25 3 0.25 5 2.25 C5.25396729 4.10949707 5.25396729 4.10949707 5.25878906 6.39257812 C5.26509338 7.24686401 5.27139771 8.1011499 5.27789307 8.98132324 C5.2738446 9.90529907 5.26979614 10.8292749 5.265625 11.78125 C5.26849518 13.20153503 5.26849518 13.20153503 5.27142334 14.6505127 C5.27278573 16.65454372 5.26908556 18.65858354 5.26074219 20.66259766 C5.25004347 23.73750553 5.26063572 26.81182914 5.2734375 29.88671875 C5.27211591 31.83073046 5.26955354 33.77474181 5.265625 35.71875 C5.26967346 36.64272583 5.27372192 37.56670166 5.27789307 38.51867676 C5.27158875 39.37296265 5.26528442 40.22724854 5.25878906 41.10742188 C5.25719788 41.86083862 5.25560669 42.61425537 5.25396729 43.39050293 C5 45.25 5 45.25 3 47.25 C-0.125 47.375 -0.125 47.375 -3 47.25 C-3.33 46.26 -3.66 45.27 -4 44.25 C-4.78375 44.745 -5.5675 45.24 -6.375 45.75 C-11.07538526 47.694987 -14.98012699 48.09988356 -20 47.25 C-24.71028443 45.11455389 -27.82617624 41.95995148 -30 37.25 C-31.78068208 32.39359434 -31.3954264 27.57584148 -29.9375 22.6875 C-27.32285863 18.04862016 -23.78874962 14.64437481 -19 12.25 C-16.9765625 12.08203125 -16.9765625 12.08203125 -14.625 12.0625 C-13.46871094 12.04123047 -13.46871094 12.04123047 -12.2890625 12.01953125 C-9.78165112 12.27198393 -8.16738098 12.99806533 -6 14.25 C-5.95101562 13.40695313 -5.90203125 12.56390625 -5.8515625 11.6953125 C-5.77679688 10.59960938 -5.70203125 9.50390625 -5.625 8.375 C-5.55539063 7.28445312 -5.48578125 6.19390625 -5.4140625 5.0703125 C-4.82972385 1.09019453 -4.01133816 0.33427818 0 0 Z " fill="#F0F0F1" transform="translate(205,124.75)"/>
<path d="M0 0 C2.84614024 2.84614024 2.45579076 5.80369142 2.625 9.625 C2.66367188 10.33140625 2.70234375 11.0378125 2.7421875 11.765625 C2.83647724 13.50998524 2.91932891 15.25495691 3 17 C6.14930893 18.04976964 8.38814456 18.10131595 11.6875 18.0625 C12.68136719 18.05347656 13.67523438 18.04445312 14.69921875 18.03515625 C15.45847656 18.02355469 16.21773437 18.01195312 17 18 C16.94779297 16.42798828 16.94779297 16.42798828 16.89453125 14.82421875 C16.86639063 13.44532853 16.83909076 12.06642098 16.8125 10.6875 C16.78736328 9.99720703 16.76222656 9.30691406 16.73632812 8.59570312 C16.66260264 3.50864436 16.66260264 3.50864436 18.29296875 1.05078125 C21.26031624 -0.77580107 23.63774053 -0.48032278 27 0 C29.84314001 3.6512828 30.49861206 6.85963415 30.94921875 11.40234375 C31.07490234 12.62244141 31.20058594 13.84253906 31.33007812 15.09960938 C31.50700195 16.99936523 31.50700195 16.99936523 31.6875 18.9375 C31.81705078 20.20013672 31.94660156 21.46277344 32.08007812 22.76367188 C33.60735289 38.07682361 33.60735289 38.07682361 31.4375 41.375 C28.04129157 43.63913895 25.99900698 43.64269755 22 43 C19.64298439 40.87701431 18.18828685 39.19262864 17.68359375 35.99584961 C17.60669401 33.71339454 17.65055749 31.46894073 17.75 29.1875 C17.76804688 28.39923828 17.78609375 27.61097656 17.8046875 26.79882812 C17.85155952 24.86535739 17.9232959 22.93251715 18 21 C17.28457031 21.33773437 16.56914062 21.67546875 15.83203125 22.0234375 C12.73981197 23.08972001 10.90000176 23.05333357 7.6875 22.625 C6.80449219 22.51414063 5.92148438 22.40328125 5.01171875 22.2890625 C4.34785156 22.19367188 3.68398437 22.09828125 3 22 C3.04640625 23.18078125 3.0928125 24.3615625 3.140625 25.578125 C3.17814949 27.13539134 3.21454893 28.69268508 3.25 30.25 C3.30027344 31.41595703 3.30027344 31.41595703 3.3515625 32.60546875 C3.45005984 38.36756297 3.45005984 38.36756297 1.20703125 41.51953125 C-1.98496995 43.66071435 -4.24781897 43.47755031 -8 43 C-9.70361328 41.99023438 -9.70361328 41.99023438 -11 40 C-11.22843889 37.15636867 -11.28067632 34.55342417 -11.1796875 31.71875 C-11.16036163 30.9088562 -11.14103577 30.0989624 -11.12112427 29.26452637 C-11.07625033 27.55292682 -11.02363673 25.84151524 -10.96386719 24.13037109 C-10.87534388 21.51017839 -10.81878578 18.89065298 -10.765625 16.26953125 C-10.71806504 14.60671483 -10.66864809 12.94395027 -10.6171875 11.28125 C-10.60138641 10.49681519 -10.58558533 9.71238037 -10.56930542 8.9041748 C-10.35278014 3.53564985 -10.35278014 3.53564985 -8.68408203 1.00195312 C-5.83637295 -0.6923058 -3.21023782 -0.2918398 0 0 Z " fill="#5D9CBC" transform="translate(230,130)"/>
<path d="M0 0 C2.43090619 2.43090619 2.25737806 3.09765504 2.30859375 6.4296875 C2.34629883 7.74646484 2.34629883 7.74646484 2.38476562 9.08984375 C2.41977268 10.93873477 2.45105495 12.78770026 2.47851562 14.63671875 C2.50494141 15.51714844 2.53136719 16.39757812 2.55859375 17.3046875 C2.57204834 18.10890137 2.58550293 18.91311523 2.59936523 19.74169922 C3.08663967 22.48837106 4.19734847 23.91070565 6 26 C9.43793339 25.81870185 9.43793339 25.81870185 13 25 C14.89843613 22.21619111 15.26232609 19.84426953 15.34375 16.5234375 C15.38822266 15.27046875 15.38822266 15.27046875 15.43359375 13.9921875 C15.47806268 12.23958835 15.52233176 10.48698412 15.56640625 8.734375 C15.59605469 7.90164062 15.62570313 7.06890625 15.65625 6.2109375 C15.67494141 5.45087402 15.69363281 4.69081055 15.71289062 3.90771484 C16 2 16 2 18 0 C21 -0.25 21 -0.25 24 0 C26.86866884 2.86866884 26.25853358 4.89655613 26.265625 8.90625 C26.26849518 9.92700623 26.26849518 9.92700623 26.27142334 10.96838379 C26.27278463 12.40747446 26.26909205 13.84657744 26.26074219 15.28564453 C26.25004128 17.49149087 26.26063872 19.69652281 26.2734375 21.90234375 C26.27211589 23.29948097 26.26955348 24.69661768 26.265625 26.09375 C26.26336914 27.36927734 26.26111328 28.64480469 26.25878906 29.95898438 C26 33 26 33 24 35 C18.70422535 35.56338028 18.70422535 35.56338028 16.125 33.5 C15.75375 33.005 15.3825 32.51 15 32 C14.360625 32.495 13.72125 32.99 13.0625 33.5 C8.94469227 35.51688542 5.50697265 35.85695959 1 35 C-2.83891549 32.95040952 -5.42727497 30.05033026 -7 26 C-7.22705078 23.25097656 -7.22705078 23.25097656 -7.1953125 20.140625 C-7.18886719 19.02558594 -7.18242187 17.91054687 -7.17578125 16.76171875 C-7.15902344 15.60285156 -7.14226562 14.44398438 -7.125 13.25 C-7.11597656 12.07566406 -7.10695312 10.90132812 -7.09765625 9.69140625 C-7.07410063 6.79406464 -7.04120652 3.89713559 -7 1 C-4.48718205 -0.25640898 -2.78302919 -0.20872719 0 0 Z " fill="#F1F1F2" transform="translate(144,137)"/>
<path d="M0 0 C1.8125 1 1.8125 1 3 3 C3.24667073 5.71874043 3.13481122 8.25883852 3 11 C4.918125 10.938125 4.918125 10.938125 6.875 10.875 C9.0546875 10.8046875 9.0546875 10.8046875 11 11 C13 13 13 13 13.125 16.125 C13.08375 17.07375 13.0425 18.0225 13 19 C9.37 19 5.74 19 2 19 C2.495 27.415 2.495 27.415 3 36 C7.66958927 36.93391785 10.41466617 36.80917656 15 36 C15.75 38.25 15.75 38.25 16 41 C14.15554062 43.28967371 12.62637553 44.68681224 10 46 C4.91057521 46.49992739 0.48257063 46.81692667 -4.0625 44.3125 C-8.30062049 39.25409813 -8.26235599 34.49002694 -8.125 28.1875 C-8.11597656 27.39923828 -8.10695313 26.61097656 -8.09765625 25.79882812 C-8.07422504 23.86575334 -8.03835838 21.9328362 -8 20 C-8.804375 19.855625 -9.60875 19.71125 -10.4375 19.5625 C-13 19 -13 19 -14 18 C-14.1875 15.5625 -14.1875 15.5625 -14 13 C-13.34 12.34 -12.68 11.68 -12 11 C-10.68 11 -9.36 11 -8 11 C-8.0928125 9.1128125 -8.0928125 9.1128125 -8.1875 7.1875 C-8.17371263 3.29256864 -8.17371263 3.29256864 -6.8125 1 C-4.33474158 -0.36703913 -2.78844081 -0.41826612 0 0 Z " fill="#EFEFF1" transform="translate(118,126)"/>
<path d="M0 0 C3.5625 0.4375 3.5625 0.4375 5.22583008 2.56469727 C6.7169112 5.76936422 7.16330617 8.32738553 7.51171875 11.83984375 C7.63740234 13.05994141 7.76308594 14.28003906 7.89257812 15.53710938 C8.01052734 16.80361328 8.12847656 18.07011719 8.25 19.375 C8.37955078 20.63763672 8.50910156 21.90027344 8.64257812 23.20117188 C10.16985289 38.51432361 10.16985289 38.51432361 8 41.8125 C4.60379157 44.07663895 2.56150698 44.08019755 -1.4375 43.4375 C-4.57793732 40.54528676 -5.383279 38.86611835 -5.92333984 34.59692383 C-5.93613136 33.11282488 -5.92666845 31.6284168 -5.8984375 30.14453125 C-5.89752106 29.35729172 -5.89660461 28.57005219 -5.8956604 27.75895691 C-5.88963923 26.10234513 -5.87393783 24.44574347 -5.84912109 22.78930664 C-5.81246834 20.24780441 -5.80810292 17.70775534 -5.80859375 15.16601562 C-5.79876734 13.55467485 -5.78711242 11.94334396 -5.7734375 10.33203125 C-5.77121185 9.57058304 -5.76898621 8.80913483 -5.76669312 8.02461243 C-5.63433349 0.71709699 -5.63433349 0.71709699 0 0 Z " fill="#A190CD" transform="translate(253.4375,129.5625)"/>
<path d="M0 0 C0.66 0 1.32 0 2 0 C2 48.18 2 96.36 2 146 C1.67 145.34 1.34 144.68 1 144 C0.34 144 -0.32 144 -1 144 C-1.02335953 125.96300676 -1.0409942 107.92601744 -1.05181217 89.88901234 C-1.05696863 81.51413785 -1.06399897 73.13927275 -1.07543945 64.7644043 C-1.08540612 57.46494388 -1.09185816 50.16549027 -1.09408849 42.86602324 C-1.09539222 39.00096811 -1.09845678 35.13593245 -1.10573006 31.27088356 C-1.11252153 27.63236147 -1.11461058 23.99386687 -1.11310768 20.35533905 C-1.1135136 18.38462982 -1.11889251 16.41392357 -1.12442017 14.44322205 C-1.1230455 13.26678131 -1.12167084 12.09034058 -1.12025452 10.87825012 C-1.12117631 9.85782529 -1.1220981 8.83740046 -1.12304783 7.78605366 C-1.00388789 5.08802981 -0.60675741 2.6274484 0 0 Z " fill="#D8D5D3" transform="translate(30,69)"/>
<path d="M0 0 C1.98 0 3.96 0 6 0 C6.02505615 0.7113208 6.0501123 1.4226416 6.07592773 2.15551758 C6.19188439 5.37469517 6.31461245 8.59357985 6.4375 11.8125 C6.47681641 12.93205078 6.51613281 14.05160156 6.55664062 15.20507812 C6.59853516 16.27822266 6.64042969 17.35136719 6.68359375 18.45703125 C6.72025146 19.44678955 6.75690918 20.43654785 6.79467773 21.45629883 C6.90790331 24.1218351 6.90790331 24.1218351 8 27 C6.35 27.33 4.7 27.66 3 28 C2.67 26.68 2.34 25.36 2 24 C1.22914063 24.09539062 0.45828125 24.19078125 -0.3359375 24.2890625 C-1.33882812 24.39992187 -2.34171875 24.51078125 -3.375 24.625 C-4.37273437 24.74101562 -5.37046875 24.85703125 -6.3984375 24.9765625 C-7.25695312 24.98429687 -8.11546875 24.99203125 -9 25 C-11 23 -11 23 -11.1953125 19.0859375 C-11.18200376 17.51550649 -11.15813602 15.94513779 -11.125 14.375 C-11.11597656 13.57320312 -11.10695313 12.77140625 -11.09765625 11.9453125 C-11.07406223 9.96341477 -11.03819065 7.98167019 -11 6 C-7.37 6 -3.74 6 0 6 C0 4.02 0 2.04 0 0 Z " fill="#2D364B" transform="translate(131,139)"/>
<path d="M0 0 C2.875 1.375 2.875 1.375 5 4 C5.72526619 7.46841008 5.69549268 10.52814543 5 14 C2.57388349 17.56781839 1.2173448 18.7463865 -3 19.625 C-7.17862962 18.75445216 -8.56887157 17.50368509 -11 14 C-11.70716845 10.84625683 -11.70716845 8.15374317 -11 5 C-7.89186342 0.52062669 -5.43349789 -1.01878085 0 0 Z " fill="#242D44" transform="translate(195,145)"/>
<path d="M0 0 C2.375 1.5625 2.375 1.5625 4 4 C4.5625 7.5 4.5625 7.5 4 11 C1.61186047 13.66106976 -0.01553885 14.77849624 -3.5 15.5625 C-7.23996182 14.72100859 -8.70853575 13.01163873 -11 10 C-11.625 6.9375 -11.625 6.9375 -11 4 C-7.64872034 0.25445214 -4.97139349 -0.84619464 0 0 Z " fill="#64A3C4" transform="translate(227,112)"/>
<path d="M0 0 C2 1.6875 2 1.6875 3 4 C2.92608109 7.54810769 2.34352518 9.48471223 0.375 12.4375 C-2 14 -2 14 -5.5625 14 C-9 13 -9 13 -10.9375 11.3125 C-12.35295627 8.23180105 -12.55879958 6.35279749 -12 3 C-8.27967458 -1.39674823 -5.40387298 -1.60114755 0 0 Z " fill="#A293CC" transform="translate(259,113)"/>
<path d="M0 0 C0.33 0 0.66 0 1 0 C1.33 5.94 1.66 11.88 2 18 C-4.61305273 20.20435091 -7.32872032 19.90152428 -14 19 C-14 24.61 -14 30.22 -14 36 C-14.33 36 -14.66 36 -15 36 C-15 30.06 -15 24.12 -15 18 C-9.82588785 15.41294392 -5.7558047 15.41112891 0 15 C0 10.05 0 5.1 0 0 Z " fill="#608DB0" transform="translate(247,133)"/>
<path d="M0 0 C2.875 -0.125 2.875 -0.125 6 0 C8.84614024 2.84614024 8.45579076 5.80369142 8.625 9.625 C8.66367188 10.33140625 8.70234375 11.0378125 8.7421875 11.765625 C8.83647724 13.50998524 8.91932891 15.25495691 9 17 C9.99 17.33 10.98 17.66 12 18 C12 18.66 12 19.32 12 20 C12.99 20.33 13.98 20.66 15 21 C12.69 21 10.38 21 8 21 C8 27.27 8 33.54 8 40 C7.67 40 7.34 40 7 40 C7 33.07 7 26.14 7 19 C6.34 19 5.68 19 5 19 C5 18.34 5 17.68 5 17 C5.66 17 6.32 17 7 17 C6.67 12.38 6.34 7.76 6 3 C4.02 2.34 2.04 1.68 0 1 C0 0.67 0 0.34 0 0 Z " fill="#67A6C8" transform="translate(224,130)"/>
<path d="M0 0 C0.33 0 0.66 0 1 0 C1.75 3.25 1.75 3.25 2 7 C0.0625 9.4375 0.0625 9.4375 -2 11 C-2.99 10.67 -3.98 10.34 -5 10 C-4.360625 9.46375 -3.72125 8.9275 -3.0625 8.375 C-0.61470596 5.55632807 -0.33285388 3.66139268 0 0 Z " fill="#253A53" transform="translate(231,117)"/>
<path d="M0 0 C0.66 0.33 1.32 0.66 2 1 C0.02 3.31 -1.96 5.62 -4 8 C-4.99 7.67 -5.98 7.34 -7 7 C-4.69 4.69 -2.38 2.38 0 0 Z " fill="#323948" transform="translate(50,34)"/>
<path d="M0 0 C0.66 0.33 1.32 0.66 2 1 C-0.31 3.64 -2.62 6.28 -5 9 C-5.33 8.34 -5.66 7.68 -6 7 C-4.02 4.69 -2.04 2.38 0 0 Z " fill="#D8D9DD" transform="translate(67,118)"/>
</svg>
